<svg width="205" height="50" viewBox="0 0 205 50" fill="none" xmlns="http://www.w3.org/2000/svg">
<path d="M24.6759 0C11.0488 0 0 11.0488 0 24.6759C0 38.3031 11.0488 49.3519 24.6759 49.3519C38.3031 49.3519 49.3519 38.3031 49.3519 24.6759C49.3519 11.0488 38.3031 0 24.6759 0ZM24.6759 46.2674C12.7717 46.2674 3.08449 36.5801 3.08449 24.6759C3.08449 12.7717 12.7717 3.08449 24.6759 3.08449C36.5801 3.08449 46.2674 12.7717 46.2674 24.6759C46.2674 36.5801 36.5801 46.2674 24.6759 46.2674ZM32.3449 25.6248C32.9324 26.6189 33.2275 27.7785 33.2275 29.1069C33.2275 31.1461 32.6191 32.845 31.4051 34.2035C30.1912 35.565 28.4382 36.3663 26.1459 36.6073V40.0984H23.224V36.6254C19.4016 36.2338 17.0369 34.0107 16.1243 29.9623L20.6426 28.7846C21.0613 31.3299 22.4469 32.6011 24.7994 32.6011C25.8988 32.6011 26.7121 32.33 27.2303 31.7847C27.7484 31.2394 28.0073 30.5828 28.0073 29.8117C28.0073 29.0135 27.7483 28.408 27.2303 27.9983C26.7121 27.5857 25.5585 27.0645 23.7723 26.432C22.1668 25.8748 20.9106 25.3265 20.007 24.7784C19.1033 24.2362 18.3683 23.4741 17.8051 22.4951C17.2417 21.5131 16.9586 20.3684 16.9586 19.0672C16.9586 17.3592 17.4647 15.82 18.4708 14.4525C19.4769 13.088 21.0613 12.2535 23.2241 11.9493V9.25347H26.146V11.9494C29.4112 12.341 31.5258 14.1875 32.4867 17.4919L28.4623 19.1425C27.6762 16.8774 26.4651 15.7448 24.8206 15.7448C23.9952 15.7448 23.3325 15.9978 22.8356 16.5039C22.3355 17.0099 22.0855 17.6244 22.0855 18.3443C22.0855 19.0793 22.3265 19.6426 22.8084 20.0373C23.2874 20.4289 24.3206 20.9138 25.899 21.4951C27.6341 22.1277 28.9956 22.7271 29.9806 23.2904C30.9684 23.8536 31.7547 24.6338 32.3449 25.6248Z" fill="#1E656D"/>
<path d="M66.5243 41.5697H66.0304C65.1741 41.5697 64.3509 41.4876 63.561 41.3234C62.771 41.1592 62.0627 40.8636 61.4374 40.4367C60.8446 40.0098 60.3507 39.4188 59.9557 38.6635C59.5933 37.9082 59.4121 36.9231 59.4121 35.708V5.80885H60.2027C60.9926 5.80885 61.7666 5.90737 62.524 6.1044C63.2809 6.26859 63.9559 6.58055 64.5487 7.04029C65.1415 7.46718 65.6188 8.05827 65.9812 8.81355C66.343 9.56883 66.5243 10.5376 66.5243 11.7197V41.5697ZM82.4834 24.2311C82.4834 23.837 82.4508 23.4594 82.3851 23.0982C82.3519 22.7369 82.253 22.425 82.0884 22.1623C81.9569 21.8667 81.7426 21.6369 81.4465 21.4727C81.183 21.2756 80.8046 21.1771 80.3107 21.1771C80.0472 21.1771 79.7671 21.2264 79.471 21.3249C79.2074 21.3906 78.9605 21.5219 78.7301 21.719C78.5987 21.4563 78.5163 21.21 78.4832 20.9801C78.45 20.7174 78.434 20.4547 78.434 20.192C78.434 19.1412 78.9113 18.271 79.8659 17.5814C80.8211 16.8917 82.0393 16.5469 83.5209 16.5469C85.2987 16.5469 86.6654 17.0888 87.62 18.1724C88.6078 19.2233 89.1017 20.7831 89.1017 22.8519V41.5697H88.8056C86.83 41.5697 85.2821 41.1099 84.1628 40.1905C83.0436 39.2381 82.4834 37.7276 82.4834 35.6588V24.2311ZM71.223 16.5469H71.7666C73.4786 16.5469 74.9105 17.0067 76.0629 17.9262C77.2485 18.8456 77.8413 20.3069 77.8413 22.3101V41.5697H77.5446C76.7878 41.5697 76.0304 41.4711 75.2729 41.2741C74.5487 41.0771 73.8736 40.7651 73.2483 40.3382C72.6555 39.8785 72.1616 39.3038 71.7666 38.6142C71.4042 37.8918 71.223 37.0051 71.223 35.9543V16.5469ZM101.159 16.744H105.555C105.555 17.4993 105.49 18.1889 105.358 18.8128C105.259 19.4367 105.045 19.995 104.716 20.4875C104.419 20.9473 104.008 21.3085 103.481 21.5712C102.954 21.8339 102.279 21.9653 101.456 21.9653H101.159V16.744ZM93.5541 16.4484C93.5541 15.2663 93.7021 14.2811 93.9982 13.493C94.3275 12.7049 94.7556 12.081 95.2826 11.6212C95.8423 11.1286 96.5008 10.7838 97.2582 10.5868C98.0156 10.3569 98.8221 10.242 99.6779 10.242H100.172V36.2499C100.172 37.038 100.007 37.7604 99.6779 38.4172C99.3818 39.074 98.9536 39.6322 98.394 40.0919C97.8669 40.5517 97.225 40.9129 96.4676 41.1756C95.7434 41.4383 94.9534 41.5697 94.0971 41.5697H93.5541V16.4484ZM107.679 8.51801C107.679 9.14193 107.58 9.74944 107.383 10.3405C107.218 10.8988 106.955 11.3913 106.592 11.8182C106.23 12.2451 105.753 12.5899 105.16 12.8526C104.568 13.1154 103.876 13.2467 103.086 13.2467C102.394 13.2467 101.802 13.181 101.308 13.0497V11.3749C101.308 10.6525 101.176 10.0286 100.913 9.50315C100.682 8.97774 100.221 8.71504 99.5298 8.71504C99.2663 8.71504 99.0525 8.74787 98.8879 8.81355C98.7232 8.87923 98.5095 8.99416 98.2459 9.15835C98.1802 8.96132 98.1305 8.74787 98.0979 8.51801C98.0979 8.28814 98.0979 7.94334 98.0979 7.4836C98.1305 7.12238 98.2294 6.74474 98.394 6.35069C98.5918 5.92379 98.8713 5.54614 99.2337 5.21776C99.5955 4.85654 100.057 4.561 100.616 4.33113C101.209 4.10126 101.917 3.98633 102.74 3.98633C104.156 3.98633 105.325 4.41323 106.247 5.26702C107.202 6.12082 107.679 7.20448 107.679 8.51801ZM115.268 33.8855C115.268 34.2796 115.285 34.6572 115.317 35.0184C115.383 35.3797 115.482 35.708 115.614 36.0036C115.779 36.2663 115.993 36.4962 116.256 36.6932C116.552 36.8574 116.947 36.9395 117.441 36.9395C117.705 36.9395 117.968 36.9066 118.232 36.841C118.528 36.7424 118.791 36.5947 119.022 36.3976C119.154 36.6603 119.236 36.923 119.269 37.1858C119.302 37.4156 119.318 37.6619 119.318 37.9246C119.318 38.9754 118.874 39.8457 117.985 40.5353C117.096 41.2249 116.026 41.5697 114.774 41.5697C112.799 41.5697 111.284 41.0443 110.231 39.9934C109.177 38.9426 108.65 37.6291 108.65 36.0528V22.3593C108.65 21.2756 108.848 20.3726 109.243 19.6502C109.671 18.8949 110.197 18.2874 110.823 17.8276C111.482 17.3679 112.19 17.0395 112.947 16.8425C113.737 16.6455 114.511 16.5469 115.268 16.5469V33.8855ZM126.529 35.7573C126.529 36.9066 126.315 37.8589 125.887 38.6142C125.492 39.3367 124.965 39.9277 124.306 40.3875C123.681 40.8144 122.973 41.1263 122.183 41.3234C121.392 41.4876 120.635 41.5697 119.91 41.5697V24.2311C119.91 23.837 119.878 23.4594 119.812 23.0982C119.779 22.7369 119.68 22.425 119.515 22.1623C119.384 21.8667 119.17 21.6369 118.874 21.4727C118.61 21.2756 118.232 21.1771 117.738 21.1771C117.474 21.1771 117.194 21.2264 116.898 21.3249C116.634 21.3906 116.388 21.5219 116.157 21.719C116.026 21.4563 115.943 21.21 115.91 20.9801C115.877 20.7174 115.861 20.4547 115.861 20.192C115.861 19.1412 116.305 18.271 117.194 17.5814C118.084 16.8917 119.154 16.5469 120.404 16.5469C122.38 16.5469 123.895 17.0559 124.948 18.0739C126.002 19.0591 126.529 20.4875 126.529 22.3593V35.7573ZM138.34 41.5697H137.846C136.99 41.5697 136.167 41.4876 135.376 41.3234C134.586 41.1592 133.879 40.8636 133.253 40.4367C132.66 40.0098 132.166 39.4188 131.771 38.6635C131.409 37.9082 131.228 36.9231 131.228 35.708V11.7197C131.228 10.5376 131.409 9.56883 131.771 8.81355C132.133 8.05827 132.611 7.46718 133.204 7.04029C133.796 6.58055 134.471 6.26859 135.228 6.1044C135.986 5.90737 136.76 5.80885 137.55 5.80885H138.34V41.5697ZM149.156 36.841C149.156 37.3992 149.057 37.9575 148.86 38.5157C148.662 39.074 148.349 39.5829 147.921 40.0427C147.493 40.4696 146.967 40.8308 146.341 41.1263C145.715 41.4219 144.974 41.5697 144.118 41.5697C142.735 41.5697 141.566 41.192 140.612 40.4367C139.69 39.6486 139.229 38.565 139.229 37.1858C139.229 36.923 139.229 36.6932 139.229 36.4962C139.262 36.2663 139.327 36.02 139.426 35.7573C139.854 36.1514 140.381 36.3484 141.007 36.3484C141.501 36.3484 141.912 36.2006 142.242 35.9051C142.571 35.5767 142.735 35.1005 142.735 34.4766V32.063C142.999 31.9973 143.328 31.9645 143.723 31.9645C144.184 31.9645 144.728 32.0302 145.353 32.1615C145.979 32.26 146.571 32.4899 147.131 32.8511C147.691 33.2123 148.168 33.7213 148.563 34.3781C148.958 35.002 149.156 35.823 149.156 36.841ZM149.156 10.4883C149.156 11.5391 148.958 12.3765 148.563 13.0004C148.168 13.6243 147.691 14.1169 147.131 14.4781C146.571 14.8394 145.979 15.0856 145.353 15.217C144.728 15.3155 144.184 15.3648 143.723 15.3648C143.328 15.3648 142.999 15.3319 142.735 15.2663V13.0004C142.735 12.4093 142.587 11.9332 142.291 11.572C141.995 11.1779 141.566 10.9809 141.007 10.9809C140.381 10.9809 139.854 11.1779 139.426 11.572C139.327 11.3093 139.262 11.0794 139.229 10.8824C139.229 10.6525 139.229 10.4062 139.229 10.1435C139.229 9.74944 139.295 9.30612 139.426 8.81355C139.591 8.28814 139.854 7.81199 140.217 7.38509C140.579 6.92535 141.056 6.54771 141.649 6.25217C142.275 5.92379 143.065 5.75959 144.019 5.75959C144.711 5.75959 145.369 5.87453 145.995 6.1044C146.621 6.33427 147.164 6.66265 147.625 7.08954C148.086 7.51644 148.448 8.02543 148.711 8.61652C149.008 9.17477 149.156 9.7987 149.156 10.4883ZM159.255 33.8855C159.255 34.2796 159.271 34.6572 159.304 35.0184C159.37 35.3797 159.469 35.708 159.601 36.0036C159.765 36.2663 159.979 36.4962 160.243 36.6932C160.539 36.8574 160.934 36.9395 161.427 36.9395C161.691 36.9395 161.955 36.9066 162.218 36.841C162.514 36.7424 162.778 36.5947 163.008 36.3976C163.14 36.6603 163.222 36.923 163.255 37.1858C163.288 37.4156 163.305 37.6619 163.305 37.9246C163.305 38.9754 162.86 39.8457 161.971 40.5353C161.082 41.2249 160.012 41.5697 158.761 41.5697C156.785 41.5697 155.271 41.0443 154.217 39.9934C153.164 38.9426 152.636 37.6291 152.636 36.0528V22.3593C152.636 21.2756 152.834 20.3726 153.229 19.6502C153.657 18.8949 154.184 18.2874 154.81 17.8276C155.468 17.3679 156.176 17.0395 156.933 16.8425C157.723 16.6455 158.497 16.5469 159.255 16.5469V33.8855ZM170.515 35.7573C170.515 36.9066 170.301 37.8589 169.873 38.6142C169.478 39.3367 168.951 39.9277 168.293 40.3875C167.667 40.8144 166.959 41.1263 166.169 41.3234C165.379 41.4876 164.622 41.5697 163.897 41.5697V24.2311C163.897 23.837 163.864 23.4594 163.799 23.0982C163.765 22.7369 163.667 22.425 163.502 22.1623C163.37 21.8667 163.156 21.6369 162.86 21.4727C162.596 21.2756 162.218 21.1771 161.724 21.1771C161.461 21.1771 161.181 21.2264 160.884 21.3249C160.621 21.3906 160.374 21.5219 160.144 21.719C160.012 21.4563 159.93 21.21 159.897 20.9801C159.864 20.7174 159.848 20.4547 159.848 20.192C159.848 19.1412 160.292 18.271 161.181 17.5814C162.07 16.8917 163.14 16.5469 164.391 16.5469C166.366 16.5469 167.881 17.0559 168.935 18.0739C169.988 19.0591 170.515 20.4875 170.515 22.3593V35.7573ZM174.721 8.96132C174.721 7.84482 175.116 6.90893 175.906 6.15366C176.696 5.36553 177.634 4.97147 178.721 4.97147C179.807 4.97147 180.73 5.36553 181.487 6.15366C182.277 6.90893 182.672 7.84482 182.672 8.96132C182.672 10.0778 182.277 11.0137 181.487 11.769C180.73 12.5243 179.807 12.9019 178.721 12.9019C177.634 12.9019 176.696 12.5243 175.906 11.769C175.116 11.0137 174.721 10.0778 174.721 8.96132ZM175.461 16.5469H176.004C177.716 16.5469 179.149 17.0067 180.301 17.9262C181.487 18.8456 182.079 20.3069 182.079 22.3101V41.5697H181.783C181.026 41.5697 180.268 41.4711 179.511 41.2741C178.787 41.0771 178.112 40.7651 177.486 40.3382C176.893 39.8785 176.399 39.3038 176.004 38.6142C175.643 37.8918 175.461 37.0051 175.461 35.9543V16.5469ZM198.382 24.2311C198.382 23.837 198.349 23.4594 198.284 23.0982C198.25 22.7369 198.151 22.425 197.987 22.1623C197.855 21.8667 197.641 21.6369 197.345 21.4727C197.081 21.2756 196.703 21.1771 196.209 21.1771C195.946 21.1771 195.665 21.2264 195.369 21.3249C195.106 21.3906 194.859 21.5219 194.629 21.719C194.497 21.4563 194.415 21.21 194.382 20.9801C194.348 20.7174 194.332 20.4547 194.332 20.192C194.332 19.1412 194.81 18.271 195.764 17.5814C196.72 16.8917 197.938 16.5469 199.419 16.5469C201.197 16.5469 202.564 17.0888 203.518 18.1724C204.506 19.2233 205 20.7831 205 22.8519V41.5697H204.704C202.728 41.5697 201.18 41.1099 200.061 40.1905C198.942 39.2381 198.382 37.7276 198.382 35.6588V24.2311ZM187.121 16.5469H187.665C189.377 16.5469 190.809 17.0067 191.961 17.9262C193.147 18.8456 193.74 20.3069 193.74 22.3101V41.5697H193.443C192.686 41.5697 191.929 41.4711 191.171 41.2741C190.447 41.0771 189.772 40.7651 189.147 40.3382C188.554 39.8785 188.06 39.3038 187.665 38.6142C187.303 37.8918 187.121 37.0051 187.121 35.9543V16.5469Z" fill="#1E656D"/>
</svg>
