<svg width="205" height="58" viewBox="0 0 205 58" fill="none" xmlns="http://www.w3.org/2000/svg">
<g clip-path="url(#clip0_169_55)">
<path d="M24.6759 4C11.0488 4 0 15.0488 0 28.6759C0 42.3031 11.0488 53.3519 24.6759 53.3519C38.3031 53.3519 49.3519 42.3031 49.3519 28.6759C49.3519 15.0488 38.3031 4 24.6759 4ZM24.6759 50.2674C12.7717 50.2674 3.08449 40.5801 3.08449 28.6759C3.08449 16.7717 12.7717 7.08449 24.6759 7.08449C36.5801 7.08449 46.2674 16.7717 46.2674 28.6759C46.2674 40.5801 36.5801 50.2674 24.6759 50.2674Z" fill="#1E656D"/>
<path d="M66.5262 45.5697H66.0323C65.1761 45.5697 64.3529 45.4876 63.5629 45.3234C62.7729 45.1592 62.0647 44.8636 61.4394 44.4367C60.8466 44.0098 60.3527 43.4188 59.9577 42.6635C59.5953 41.9082 59.4141 40.9231 59.4141 39.708V9.80885H60.2046C60.9946 9.80885 61.7686 9.90737 62.526 10.1044C63.2828 10.2686 63.9579 10.5806 64.5507 11.0403C65.1435 11.4672 65.6208 12.0583 65.9832 12.8136C66.345 13.5688 66.5262 14.5376 66.5262 15.7197V45.5697ZM82.4854 28.2311C82.4854 27.837 82.4528 27.4594 82.3871 27.0982C82.3539 26.7369 82.255 26.425 82.0904 26.1623C81.9589 25.8667 81.7446 25.6369 81.4485 25.4727C81.1849 25.2756 80.8065 25.1771 80.3126 25.1771C80.0491 25.1771 79.769 25.2264 79.4729 25.3249C79.2094 25.3906 78.9625 25.5219 78.7321 25.719C78.6006 25.4563 78.5183 25.21 78.4852 24.9801C78.452 24.7174 78.436 24.4547 78.436 24.192C78.436 23.1412 78.9133 22.271 79.8679 21.5814C80.8231 20.8917 82.0412 20.5469 83.5229 20.5469C85.3006 20.5469 86.6674 21.0888 87.622 22.1724C88.6098 23.2233 89.1036 24.7831 89.1036 26.8519V45.5697H88.8075C86.832 45.5697 85.2841 45.1099 84.1648 44.1905C83.0456 43.2381 82.4854 41.7276 82.4854 39.6588V28.2311ZM71.225 20.5469H71.7686C73.4806 20.5469 74.9125 21.0067 76.0649 21.9262C77.2505 22.8456 77.8432 24.3069 77.8432 26.3101V45.5697H77.5466C76.7897 45.5697 76.0323 45.4711 75.2749 45.2741C74.5507 45.0771 73.8756 44.7651 73.2502 44.3382C72.6575 43.8785 72.1636 43.3038 71.7686 42.6142C71.4062 41.8918 71.225 41.0051 71.225 39.9543V20.5469ZM101.161 20.744H105.557C105.557 21.4993 105.492 22.1889 105.359 22.8128C105.261 23.4367 105.047 23.995 104.718 24.4875C104.421 24.9473 104.01 25.3085 103.483 25.5712C102.956 25.8339 102.281 25.9653 101.458 25.9653H101.161V20.744ZM93.556 20.4484C93.556 19.2663 93.7041 18.2811 94.0002 17.493C94.3294 16.7049 94.7576 16.081 95.2846 15.6212C95.8442 15.1286 96.5027 14.7838 97.2601 14.5868C98.0175 14.3569 98.8241 14.242 99.6798 14.242H100.174V40.2499C100.174 41.038 100.009 41.7604 99.6798 42.4172C99.3837 43.074 98.9556 43.6322 98.396 44.0919C97.8689 44.5517 97.227 44.9129 96.4696 45.1756C95.7453 45.4383 94.9554 45.5697 94.0991 45.5697H93.556V20.4484ZM107.681 12.518C107.681 13.1419 107.582 13.7494 107.385 14.3405C107.22 14.8988 106.957 15.3913 106.594 15.8182C106.232 16.2451 105.755 16.5899 105.162 16.8526C104.569 17.1154 103.878 17.2467 103.088 17.2467C102.396 17.2467 101.804 17.181 101.31 17.0497V15.3749C101.31 14.6525 101.178 14.0286 100.915 13.5032C100.684 12.9777 100.223 12.715 99.5318 12.715C99.2683 12.715 99.0545 12.7479 98.8898 12.8136C98.7252 12.8792 98.5114 12.9942 98.2479 13.1584C98.1822 12.9613 98.1324 12.7479 98.0999 12.518C98.0999 12.2881 98.0999 11.9433 98.0999 11.4836C98.1324 11.1224 98.2313 10.7447 98.396 10.3507C98.5937 9.92379 98.8733 9.54614 99.2357 9.21776C99.5975 8.85654 100.059 8.561 100.618 8.33113C101.211 8.10126 101.919 7.98633 102.742 7.98633C104.158 7.98633 105.327 8.41323 106.249 9.26702C107.204 10.1208 107.681 11.2045 107.681 12.518ZM115.27 37.8855C115.27 38.2796 115.287 38.6572 115.319 39.0184C115.385 39.3797 115.484 39.708 115.616 40.0036C115.781 40.2663 115.995 40.4962 116.258 40.6932C116.554 40.8574 116.949 40.9395 117.443 40.9395C117.707 40.9395 117.97 40.9066 118.234 40.841C118.53 40.7424 118.793 40.5947 119.024 40.3976C119.156 40.6603 119.238 40.923 119.271 41.1858C119.304 41.4156 119.32 41.6619 119.32 41.9246C119.32 42.9754 118.876 43.8457 117.987 44.5353C117.098 45.2249 116.028 45.5697 114.776 45.5697C112.801 45.5697 111.286 45.0443 110.233 43.9934C109.179 42.9426 108.652 41.6291 108.652 40.0528V26.3593C108.652 25.2756 108.85 24.3726 109.245 23.6502C109.673 22.8949 110.199 22.2874 110.825 21.8276C111.484 21.3679 112.192 21.0395 112.949 20.8425C113.739 20.6455 114.513 20.5469 115.27 20.5469V37.8855ZM126.531 39.7573C126.531 40.9066 126.317 41.8589 125.889 42.6142C125.494 43.3367 124.967 43.9277 124.308 44.3875C123.683 44.8144 122.975 45.1263 122.185 45.3234C121.394 45.4876 120.637 45.5697 119.912 45.5697V28.2311C119.912 27.837 119.88 27.4594 119.814 27.0982C119.781 26.7369 119.682 26.425 119.517 26.1623C119.386 25.8667 119.172 25.6369 118.876 25.4727C118.612 25.2756 118.234 25.1771 117.74 25.1771C117.476 25.1771 117.196 25.2264 116.9 25.3249C116.636 25.3906 116.39 25.5219 116.159 25.719C116.028 25.4563 115.945 25.21 115.912 24.9801C115.879 24.7174 115.863 24.4547 115.863 24.192C115.863 23.1412 116.307 22.271 117.196 21.5814C118.086 20.8917 119.156 20.5469 120.406 20.5469C122.382 20.5469 123.897 21.0559 124.95 22.0739C126.004 23.0591 126.531 24.4875 126.531 26.3593V39.7573ZM138.342 45.5697H137.848C136.992 45.5697 136.169 45.4876 135.378 45.3234C134.588 45.1592 133.881 44.8636 133.255 44.4367C132.662 44.0098 132.168 43.4188 131.773 42.6635C131.411 41.9082 131.23 40.9231 131.23 39.708V15.7197C131.23 14.5376 131.411 13.5688 131.773 12.8136C132.135 12.0583 132.613 11.4672 133.206 11.0403C133.798 10.5806 134.473 10.2686 135.23 10.1044C135.988 9.90737 136.762 9.80885 137.552 9.80885H138.342V45.5697ZM149.158 40.841C149.158 41.3992 149.059 41.9575 148.862 42.5157C148.664 43.074 148.351 43.5829 147.923 44.0427C147.495 44.4696 146.969 44.8308 146.343 45.1263C145.717 45.4219 144.976 45.5697 144.12 45.5697C142.737 45.5697 141.568 45.192 140.614 44.4367C139.692 43.6486 139.231 42.565 139.231 41.1858C139.231 40.923 139.231 40.6932 139.231 40.4962C139.264 40.2663 139.329 40.02 139.428 39.7573C139.856 40.1514 140.383 40.3484 141.009 40.3484C141.503 40.3484 141.914 40.2006 142.243 39.9051C142.573 39.5767 142.737 39.1005 142.737 38.4766V36.063C143.001 35.9973 143.33 35.9645 143.725 35.9645C144.186 35.9645 144.729 36.0302 145.355 36.1615C145.981 36.26 146.573 36.4899 147.133 36.8511C147.693 37.2123 148.17 37.7213 148.565 38.3781C148.96 39.002 149.158 39.823 149.158 40.841ZM149.158 14.4883C149.158 15.5391 148.96 16.3765 148.565 17.0004C148.17 17.6243 147.693 18.1169 147.133 18.4781C146.573 18.8394 145.981 19.0856 145.355 19.217C144.729 19.3155 144.186 19.3648 143.725 19.3648C143.33 19.3648 143.001 19.3319 142.737 19.2663V17.0004C142.737 16.4093 142.589 15.9332 142.293 15.572C141.997 15.1779 141.568 14.9809 141.009 14.9809C140.383 14.9809 139.856 15.1779 139.428 15.572C139.329 15.3093 139.264 15.0794 139.231 14.8824C139.231 14.6525 139.231 14.4062 139.231 14.1435C139.231 13.7494 139.297 13.3061 139.428 12.8136C139.593 12.2881 139.856 11.812 140.219 11.3851C140.581 10.9254 141.058 10.5477 141.651 10.2522C142.277 9.92379 143.067 9.75959 144.021 9.75959C144.713 9.75959 145.371 9.87453 145.997 10.1044C146.623 10.3343 147.166 10.6626 147.627 11.0895C148.088 11.5164 148.45 12.0254 148.713 12.6165C149.01 13.1748 149.158 13.7987 149.158 14.4883ZM159.257 37.8855C159.257 38.2796 159.273 38.6572 159.306 39.0184C159.372 39.3797 159.471 39.708 159.603 40.0036C159.767 40.2663 159.981 40.4962 160.244 40.6932C160.541 40.8574 160.936 40.9395 161.429 40.9395C161.693 40.9395 161.957 40.9066 162.22 40.841C162.516 40.7424 162.78 40.5947 163.01 40.3976C163.142 40.6603 163.224 40.923 163.257 41.1858C163.29 41.4156 163.307 41.6619 163.307 41.9246C163.307 42.9754 162.862 43.8457 161.973 44.5353C161.084 45.2249 160.014 45.5697 158.763 45.5697C156.787 45.5697 155.273 45.0443 154.219 43.9934C153.166 42.9426 152.638 41.6291 152.638 40.0528V26.3593C152.638 25.2756 152.836 24.3726 153.231 23.6502C153.659 22.8949 154.186 22.2874 154.812 21.8276C155.47 21.3679 156.178 21.0395 156.935 20.8425C157.725 20.6455 158.499 20.5469 159.257 20.5469V37.8855ZM170.517 39.7573C170.517 40.9066 170.303 41.8589 169.875 42.6142C169.48 43.3367 168.953 43.9277 168.295 44.3875C167.669 44.8144 166.961 45.1263 166.171 45.3234C165.381 45.4876 164.624 45.5697 163.899 45.5697V28.2311C163.899 27.837 163.866 27.4594 163.801 27.0982C163.767 26.7369 163.669 26.425 163.504 26.1623C163.372 25.8667 163.158 25.6369 162.862 25.4727C162.598 25.2756 162.22 25.1771 161.726 25.1771C161.463 25.1771 161.183 25.2264 160.886 25.3249C160.623 25.3906 160.376 25.5219 160.146 25.719C160.014 25.4563 159.932 25.21 159.899 24.9801C159.866 24.7174 159.85 24.4547 159.85 24.192C159.85 23.1412 160.294 22.271 161.183 21.5814C162.072 20.8917 163.142 20.5469 164.393 20.5469C166.368 20.5469 167.883 21.0559 168.937 22.0739C169.99 23.0591 170.517 24.4875 170.517 26.3593V39.7573ZM174.723 12.9613C174.723 11.8448 175.118 10.9089 175.908 10.1537C176.698 9.36553 177.636 8.97147 178.723 8.97147C179.809 8.97147 180.731 9.36553 181.489 10.1537C182.279 10.9089 182.674 11.8448 182.674 12.9613C182.674 14.0778 182.279 15.0137 181.489 15.769C180.731 16.5243 179.809 16.9019 178.723 16.9019C177.636 16.9019 176.698 16.5243 175.908 15.769C175.118 15.0137 174.723 14.0778 174.723 12.9613ZM175.463 20.5469H176.006C177.718 20.5469 179.151 21.0067 180.303 21.9262C181.489 22.8456 182.081 24.3069 182.081 26.3101V45.5697H181.785C181.028 45.5697 180.27 45.4711 179.513 45.2741C178.789 45.0771 178.114 44.7651 177.488 44.3382C176.895 43.8785 176.401 43.3038 176.006 42.6142C175.645 41.8918 175.463 41.0051 175.463 39.9543V20.5469ZM198.384 28.2311C198.384 27.837 198.351 27.4594 198.285 27.0982C198.252 26.7369 198.153 26.425 197.989 26.1623C197.857 25.8667 197.643 25.6369 197.347 25.4727C197.083 25.2756 196.705 25.1771 196.211 25.1771C195.948 25.1771 195.667 25.2264 195.371 25.3249C195.108 25.3906 194.861 25.5219 194.631 25.719C194.499 25.4563 194.417 25.21 194.384 24.9801C194.35 24.7174 194.334 24.4547 194.334 24.192C194.334 23.1412 194.812 22.271 195.766 21.5814C196.722 20.8917 197.94 20.5469 199.421 20.5469C201.199 20.5469 202.566 21.0888 203.52 22.1724C204.508 23.2233 205.002 24.7831 205.002 26.8519V45.5697H204.706C202.73 45.5697 201.182 45.1099 200.063 44.1905C198.944 43.2381 198.384 41.7276 198.384 39.6588V28.2311ZM187.123 20.5469H187.667C189.379 20.5469 190.811 21.0067 191.963 21.9262C193.149 22.8456 193.742 24.3069 193.742 26.3101V45.5697H193.445C192.688 45.5697 191.931 45.4711 191.173 45.2741C190.449 45.0771 189.774 44.7651 189.149 44.3382C188.556 43.8785 188.062 43.3038 187.667 42.6142C187.305 41.8918 187.123 41.0051 187.123 39.9543V20.5469Z" fill="#1E656D"/>
<path d="M15.4752 43.5152C16.6152 43.4552 17.3952 43.2002 17.8152 42.7502C18.2352 42.2702 18.4602 41.6252 18.4902 40.8152C18.5502 39.9752 18.5802 39.0302 18.5802 37.9802V18.5402C18.5802 17.9402 18.5952 17.3702 18.6252 16.8302C18.6552 16.2602 18.6852 15.7502 18.7152 15.3002C18.1752 15.3302 17.6352 15.3602 17.0952 15.3902C16.5552 15.4202 16.0152 15.4502 15.4752 15.4802V13.5002C17.0652 13.4702 18.7002 13.4552 20.3802 13.4552C22.0602 13.4252 23.7702 13.4102 25.5102 13.4102C27.8502 13.4102 29.9052 13.7402 31.6752 14.4002C33.4752 15.0602 34.8702 16.0352 35.8602 17.3252C36.8802 18.6152 37.3902 20.2202 37.3902 22.1402C37.3902 23.3102 37.1802 24.5402 36.7602 25.8302C36.3702 27.0902 35.6802 28.2902 34.6902 29.4302C33.7302 30.5402 32.3802 31.4402 30.6402 32.1302C28.9302 32.8202 26.7552 33.1652 24.1152 33.1652C23.9952 33.1652 23.7702 33.1652 23.4402 33.1652C23.1102 33.1652 22.7952 33.1502 22.4952 33.1202V39.6452C22.4952 40.4552 22.4802 41.1602 22.4502 41.7602C22.4502 42.3302 22.4202 42.8102 22.3602 43.2002C22.8402 43.1702 23.3052 43.1402 23.7552 43.1102C24.2052 43.0802 24.6552 43.0652 25.1052 43.0652C25.5852 43.0352 26.0502 43.0052 26.5002 42.9752V45.0002H15.4752V43.5152ZM22.4952 31.2752C23.0652 31.3352 23.5452 31.3802 23.9352 31.4102C24.3552 31.4102 24.8502 31.4102 25.4202 31.4102C26.7702 31.4102 28.0152 31.0802 29.1552 30.4202C30.3252 29.7302 31.2552 28.7552 31.9452 27.4952C32.6652 26.2352 33.0252 24.7352 33.0252 22.9952C33.0252 21.7352 32.8302 20.6252 32.4402 19.6652C32.0502 18.6752 31.5102 17.8502 30.8202 17.1902C30.1302 16.5302 29.3202 16.0352 28.3902 15.7052C27.4602 15.3452 26.4702 15.1652 25.4202 15.1652C24.3702 15.1652 23.6352 15.3902 23.2152 15.8402C22.8252 16.2902 22.6002 16.9202 22.5402 17.7302C22.5102 18.5102 22.4952 19.4402 22.4952 20.5202V31.2752ZM15.1152 31.2752H21.8652V33.1652H15.1152V31.2752ZM15.1152 36.1352H31.3152V37.9802L15.1152 38.0252V36.1352Z" fill="#1E656D"/>
</g>
<defs>
<clipPath id="clip0_169_55">
<rect width="205" height="58" fill="white"/>
</clipPath>
</defs>
</svg>
